<svg id="Layer_1" enable-background="new 0 0 256 256" height="512" viewBox="0 0 256 256" width="512" xmlns="http://www.w3.org/2000/svg"><g><g><g><path d="m119.43 216.664-.009.004-22.514 2.287-9.253-22.339-15.121 2.188c-4.118-27.017 7.292-39.679 24.292-42.512l30.707 12.626c11.685 16.186 5.388 33.029-8.102 47.746z" fill="#7a7380"/></g><g><path d="m172.97 15.802c-10.77-4.461-22.874.993-26.908 11.652-46.612 123.55-24.226 64.238-41.994 111.33l.004.009 30.661 12.7.009-.004c10.892-24.085 12.259-27.113 49.005-108.418 4.713-10.4-.021-22.813-10.777-27.269z" fill="#f0c020"/></g><g><path d="m116.054 137.354c-1.292-.487-1.943-1.93-1.456-3.222l2.655-7.037c.488-1.292 1.931-1.939 3.222-1.456 1.292.487 1.943 1.93 1.456 3.222l-2.655 7.037c-.482 1.276-1.911 1.949-3.222 1.456zm6.185-16.393c-1.292-.487-1.943-1.93-1.456-3.222l32.96-87.355c2.01-5.333 8.126-8.224 13.682-5.925 1.275.528 1.881 1.991 1.353 3.267s-1.991 1.88-3.267 1.353c-2.9-1.203-6.053.321-7.089 3.07l-32.961 87.356c-.482 1.276-1.91 1.949-3.222 1.456z" fill="#f9e5af"/></g><g><path d="m119.42 216.667c-11.585 12.663-29.523 24.643-48.987 25.094 6.512-16.003 4.005-30.485 2.099-42.958l15.121-2.188 9.253 22.339z" fill="#fc5d3d"/></g><g><path d="m88.153 226.012c-1.436 0-2.569-1.2-2.499-2.623.465-9.45-.977-18.666-2.111-26.163-.206-1.365.733-2.639 2.099-2.845 1.358-.212 2.639.732 2.845 2.099 1.187 7.828 2.649 17.253 2.162 27.155-.066 1.337-1.171 2.377-2.496 2.377z" fill="#ffcbc2"/></g><g><path d="m83.542 197.224c-1.212-8.112-4.88-23.67 12.11-29.224 1.314-.433 2.724.288 3.152 1.6.43 1.312-.287 2.724-1.6 3.152-12.006 3.925-10.296 13.275-8.718 23.729.205 1.365-.736 2.639-2.102 2.844-1.377.203-2.638-.745-2.842-2.101z" fill="#afafaf"/></g><g><path d="m134.742 151.49-7.211 17.427-30.707-12.626 7.248-17.497 30.661 12.7z" fill="#efefef"/></g></g><g><g><path d="m200.036 163.721c-3.59-3.784-3.347-9.764.414-13.294l27.395-25.738-27.395-25.738c-3.813-3.617-3.956-9.578-.414-13.312 3.535-3.763 9.508-4.013 13.31-.414l34.702 32.593c3.924 3.687 3.946 10.017 0 13.724l-34.702 32.593v.018c-3.805 3.562-9.794 3.347-13.31-.432z" fill="#72c1e8"/></g></g><g><path d="m55.964 163.721c3.59-3.784 3.347-9.764-.414-13.294l-27.395-25.738 27.395-25.738c3.813-3.617 3.956-9.578.414-13.312-3.535-3.763-9.508-4.013-13.31-.414l-34.703 32.593c-3.924 3.687-3.946 10.017 0 13.724l34.702 32.593v.018c3.806 3.562 9.795 3.347 13.311-.432z" fill="#72c1e8"/></g><g><path d="m47.418 158.675c-.36-.378-.796-.856-1.415-1.437-1.006-.945-1.056-2.527-.11-3.534s2.526-1.056 3.534-.11l1.672 1.57c1.058.974 1.306 2.76.197 3.881-.987.998-2.474 1.103-3.878-.37zm-8.703-8.284-25.415-23.88c-1.051-.988-1.05-2.658 0-3.645l34.346-32.269c1.008-.945 2.589-.895 3.534.11.945 1.007.896 2.589-.11 3.534l-32.406 30.446 23.476 22.058c1.006.945 1.056 2.528.11 3.534-.945 1.006-2.527 1.058-3.535.112z" fill="#c5e5ff"/></g><g><path d="m205.178 159.012c-1.057-1.109-.842-2.86.248-3.865l1.653-1.553c1.006-.944 2.589-.896 3.534.11.945 1.007.896 2.589-.11 3.534-.745.7-1.224 1.254-1.631 1.665-1.203 1.213-2.743 1.108-3.694.109zm9.079-8.732c-.945-1.006-.896-2.589.11-3.534l23.476-22.058-32.406-30.446c-1.006-.945-1.056-2.527-.11-3.534.946-1.005 2.527-1.056 3.534-.11l34.346 32.269c1.051.988 1.05 2.658 0 3.645l-25.415 23.88c-1.008.944-2.59.894-3.535-.112z" fill="#c5e5ff"/></g><g><path d="m76.83 226.02c.13-1.37-.87-2.59-2.24-2.729-1.38-.12-2.6.88-2.73 2.25-.147 1.416.915 2.61 2.24 2.729 1.277.152 2.595-.798 2.73-2.25z"/><path d="m166.38 81.5c-1.22-.55-2.75.03-3.3 1.24-.011 0-.011.01-.011.01-.581 1.313.028 2.75 1.25 3.31 1.236.563 2.725.021 3.311-1.25.568-1.284-.015-2.764-1.25-3.31z"/><path d="m173.93 13.49c-12.095-4.994-25.666 1.096-30.21 13.079-49.728 131.824-39.685 105.777-48.688 127.512-12.156 2.442-30.079 11.636-24.973 45.097 0 .003.002.005.002.008.683 4.562 1.69 10.469 1.989 16.724.07 1.34 1.16 2.38 2.5 2.38 1.48 0 2.563-1.232 2.5-2.61-.25-5.177-.959-10.125-1.669-14.763l10.707-1.545c.22.532 8.311 20.073 8.536 20.586.439 1.006 1.49 1.595 2.536 1.487l15.578-1.583c-6.932 6.45-21.06 17.388-38.638 19.168.3-.91.59-1.841.84-2.761.37-1.33-.409-2.71-1.739-3.069-1.301-.37-2.721.439-3.08 1.739-.551 1.98-1.221 3.96-2 5.88-.676 1.647.535 3.44 2.31 3.44h.061c19.386-.49 37.923-11.818 50.782-25.904 16.065-17.52 19.187-34.687 9.088-49.74 8.848-21.388.549-2.564 33.149-74.705.57-1.261.01-2.74-1.24-3.311-1.229-.55-2.76.03-3.31 1.25-18.102 40.029-11.364 25.144-25.5 56.41-11.099-4.596-5.511-2.282-26.2-10.851 11.56-30.671 35.973-95.376 41.139-109.069 3.438-9.107 13.911-14.239 23.61-10.23 9.428 3.906 13.605 14.786 9.46 23.931-1.914 4.24-9.611 21.273-14.29 31.609-.57 1.29.016 2.744 1.25 3.311 1.23.55 2.76-.04 3.311-1.25 1.306-2.89 11.991-26.537 14.29-31.61 5.299-11.743-.068-25.623-12.101-30.61zm-55.707 200.786-19.713 2.004c-.109-.262-8.453-20.39-8.565-20.65-.402-.945-1.347-1.508-2.287-1.51-.346-.001-12.65 1.799-12.992 1.848-2.559-21.175 4.972-33.964 21.877-37.089l29.366 12.073c9.019 13.018 6.434 27.587-7.686 43.324zm7.951-48.622-26.083-10.723 5.332-12.872 26.049 10.789z"/><path d="m249.761 115.995-34.695-32.586c-4.874-4.614-12.418-4.201-16.843.509-4.466 4.706-4.348 12.242.516 16.854l25.455 23.916-25.454 23.915c-4.793 4.499-5.046 12.055-.525 16.829 4.471 4.795 12.036 5.042 16.841.546 0 0-1.072.988 34.706-32.614 4.979-4.679 4.98-12.687-.001-17.369zm-3.424 13.725-34.702 32.593c-2.871 2.711-7.264 2.399-9.769-.295-.005-.006-.011-.012-.017-.018-2.617-2.757-2.466-7.145.313-9.751l27.395-25.738c1.051-.988 1.05-2.658 0-3.645l-27.386-25.73c-2.817-2.669-2.916-7.043-.313-9.785 2.604-2.774 6.988-2.944 9.776-.304l34.702 32.593c2.873 2.699 2.907 7.351.001 10.08z"/><path d="m57.78 83.92c-4.385-4.678-11.946-5.15-16.851-.51l-7.61 7.14c-.997.957-1.049 2.528-.1 3.54.9.96 2.561 1.02 3.53.11l7.609-7.15c2.807-2.655 7.18-2.477 9.78.3 2.569 2.698 2.533 7.089-.31 9.79l-27.391 25.73c-1.055.991-1.05 2.653 0 3.64l27.4 25.74c2.915 2.746 2.784 7.275.3 9.76-2.719 2.927-7.244 2.788-9.78.3l-34.697-32.59c-2.885-2.717-2.884-7.363 0-10.08l12.51-11.75c1.01-.939 1.06-2.53.11-3.53-.91-.979-2.561-1.029-3.53-.109l-12.51 11.749c-4.974 4.658-4.99 12.687 0 17.359l34.699 32.62c4.864 4.535 12.418 4.181 16.83-.529 0 0 0-.011.011-.011 4.577-4.817 4.209-12.387-.521-16.84l-25.46-23.91 25.46-23.92c4.76-4.52 5.07-12.061.521-16.849z"/><path d="m29.46 101.04c.995-.914 1.075-2.503.109-3.53-.909-.97-2.569-1.02-3.529-.11-1.01.94-1.061 2.53-.11 3.53.933.994 2.502 1.071 3.53.11z"/></g></g></svg>